<svg xmlns="http://www.w3.org/2000/svg" width="430.417" height="360.201" viewBox="0 0 430.417 360.201"><g transform="translate(903.552 1253.603) rotate(180)"><path d="M800.482,1209.228c-12.268.729-24.754-.329-36.466-7.891-9.174-5.924-15.744-13.3-17.892-23.669-2.808-13.559-5.259-27.308-6.275-41.093-1.1-14.954-5.969-26.8-19.548-34.351-8.526-4.739-14.854-3.973-20.647,3.807-4.819,6.472-8.3,13.788-6.105,22.057,2.838,10.7,5.6,21.551,9.85,31.727,16.356,39.162-2.808,69.133-35.038,85.041-11.231,5.543-24.887,7.087-37.648,8.431-34.571,3.637-53.659-24.949-61.643-46.489-5.593-15.087,2.065-28.705,11.737-39.471,12.3-13.69,26.643-25.524,39.927-38.341,9.628-9.285,19.428-18.471,28.165-28.558,2.8-3.239,4.733-10.507,2.972-13.6-2.226-3.91-8.863-7.872-13.2-7.469-7.983.743-16.134,3.745-23.365,7.46-9.859,5.061-18.793,11.879-28.346,17.575-20.664,12.316-42.543,20.644-67.172,18.365-5.924-.551-11.731-2.321-17.617-3.392-29.031-5.281-39.2-50.96-17.049-74.064,24.261-25.311,53.659-36.488,88.013-30.422,14.289,2.524,27.667,10.162,41.5,15.36,6.024,2.262,12.023,5.025,18.284,6.125,6.87,1.208,13.062-1.619,16.064-8.345,2.9-6.5-.378-11.823-5.167-15.994-4.886-4.252-10.4-7.783-15.3-12.021-5.237-4.527-10.746-8.985-14.981-14.383-21.977-28-21.932-52.519,11.058-77.381,23.09-17.4,50.8-18.657,78.182-8.134,14.77,5.679,22.3,16.86,20.324,32.6a92.816,92.816,0,0,1-7.786,27.714c-5.509,11.67-12.989,22.417-19.717,33.5-8.331,13.727-1.725,27.55,14.339,29.114,15.524,1.511,28.023-5.178,38.227-16.225,5.326-5.763,9.889-12.257,14.545-18.607,15.379-20.969,34.326-37.8,58.465-47.7,17.711-7.268,36.73-5.677,54.859-2.346,16.014,2.944,27.347,21.025,27.506,37.49.273,28.132-19.472,56.879-55.415,63.337-16.871,3.028-33.814,5.668-50.738,8.384-12.441,2-22.444,8.52-31.168,17.068-6.823,6.689-7.029,11.882-1.413,19.667,5.746,7.969,14.049,11.937,23.452,13.637,10.488,1.9,21.164,2.914,31.524,5.32a314.047,314.047,0,0,1,31.86,9.472c29.86,10.371,36.672,59.75,12.035,77.431C844.692,1203.588,824.418,1210.213,800.482,1209.228Zm12.232-14.831c10.649-2.755,22.525-3.389,31.691-8.7,18.93-10.969,29.011-28.374,11.631-47.593a50.412,50.412,0,0,0-15.388-11.489c-15.129-7.176-31.012-11.887-48.05-12.266a87.285,87.285,0,0,1-21.952-2.98c-19.659-5.64-28.716-25.686-20.363-43.97,9.386-20.538,27.172-29.4,47.938-33.675,15.886-3.275,32.014-5.459,47.771-9.224,17.1-4.085,32.1-11.45,40.019-29.056,12.057-26.819-5.148-52.065-34.507-49.636-30.188,2.5-54.174,16.128-69.551,42.368-8.186,13.971-18.952,25.219-31.059,35.219-11.122,9.188-23.672,16.584-38.964,16.236-17.647-.4-26.134-8.929-27.447-26.5a64.765,64.765,0,0,1,10.451-40.957,169.149,169.149,0,0,0,14.759-28.221c7.7-19.358-2.674-36.741-23.518-37.3A151.489,151.489,0,0,0,641,912.14c-17.408,4.986-26.432,18.938-29.178,37.1-2.73,18.045,6.347,30.071,18.988,40.623,8.9,7.421,18,14.589,26.858,22.057,6.225,5.254,8.517,12.207,6.492,20.043-2.2,8.512-8.59,13.791-16.818,14.589a67.8,67.8,0,0,1-24.59-1.761c-10.151-2.885-19.492-8.509-29.465-12.188-9.873-3.645-19.973-8.381-30.194-8.993-17.277-1.038-34.034,3.628-49.388,12.1a48.181,48.181,0,0,0-22.5,25.561c-5.579,14.653-1.75,33.163,9.388,38.775a88.431,88.431,0,0,0,27.52,8.665c24.562,3.281,44.953-8.439,64.264-21.3,15.841-10.552,33.1-16.492,51.458-19.623,10.524-1.792,19.255,2.6,25,11.592,5.93,9.283,2.941,18.849-3.4,25.744a441.311,441.311,0,0,1-39.91,38.422c-10.955,9.249-23.046,17.085-31.351,29.156-11.347,16.5-9.21,38.28,5.025,50.359,21.228,18.014,63.532,13.44,80.7-8.646,6.467-8.317,11.055-17.43,10.023-28.137-1.057-10.986-3.289-21.854-4.739-32.81-1.33-10.025-4.174-20.332-2.961-30.1,1.572-12.6,4.569-26.12,19.47-31.048,17.494-5.785,33.708-1.639,44.549,10.435,9.149,10.193,11.016,22.369,9.981,35.088C754.021,1164.887,777.648,1196.269,812.714,1194.4Z" transform="translate(0 0)" fill="#d0f162"/><g transform="translate(674.385 1048.65)"><path d="M562.61,981.44H562.4c-5.4-.05-10.084-1.823-13.181-4.986a12.947,12.947,0,0,1-3.759-9.4c.106-8.682,9.48-17.519,18.93-17.842a18.117,18.117,0,0,1,13.356,5.3,13.909,13.909,0,0,1,4.338,10.329C581.743,973.877,572.847,981.44,562.61,981.44Zm2.36-23.894c-.1,0-.2,0-.292.005-5.44.189-10.822,5.654-10.869,9.6a4.711,4.711,0,0,0,1.377,3.464c1.511,1.544,4.171,2.446,7.3,2.477h.122c5.677,0,10.966-4.06,11.139-8.573a5.721,5.721,0,0,0-1.909-4.124A9.968,9.968,0,0,0,564.969,957.546Z" transform="translate(-545.46 -949.195)" fill="#d0f162"/></g></g></svg>