<svg xmlns="http://www.w3.org/2000/svg" width="99.663" height="12.792" viewBox="0 0 99.663 12.792"><g transform="translate(-632 -744)"><path d="M-38.716-.516l.955-.076v-5.15l-.955-.076V-6.34h1.652V-.592l.955.076V0h-2.607Zm1.652-7.641h-.7v-.984h.7ZM-30.554,0q-.07-.322-.1-.557a3.823,3.823,0,0,1-.029-.475,2.8,2.8,0,0,1-.937.826,2.651,2.651,0,0,1-1.318.328,2.02,2.02,0,0,1-1.441-.48,1.7,1.7,0,0,1-.51-1.3,1.606,1.606,0,0,1,.756-1.395,3.59,3.59,0,0,1,2.051-.516h1.4v-.838a1.351,1.351,0,0,0-.437-1.066,1.78,1.78,0,0,0-1.222-.387,3.072,3.072,0,0,0-.964.144,2.178,2.178,0,0,0-.729.39l-.059.85h-.58l.006-1.219a3.644,3.644,0,0,1,1.052-.551,3.975,3.975,0,0,1,1.3-.211,2.547,2.547,0,0,1,1.688.533,1.88,1.88,0,0,1,.639,1.529v3.117q0,.193.009.372a2.884,2.884,0,0,0,.038.349l.633.041V0Zm-2.309-.5A2.537,2.537,0,0,0-31.521-.85a2.076,2.076,0,0,0,.838-.908V-3.029h-1.412a2.636,2.636,0,0,0-1.526.4,1.178,1.178,0,0,0-.571,1,1.046,1.046,0,0,0,.354.823A1.421,1.421,0,0,0-32.862-.5Zm4.424-.018.955-.076v-5.15l-.955-.076V-6.34h1.576l.064,1.107a2.259,2.259,0,0,1,.823-.905,2.294,2.294,0,0,1,1.228-.319,1.953,1.953,0,0,1,1.57.63,2.98,2.98,0,0,1,.539,1.966v3.27l.955.076V0H-24.3V-.516l.955-.076V-3.855A2.3,2.3,0,0,0-23.748-5.4a1.479,1.479,0,0,0-1.157-.451,1.813,1.813,0,0,0-1.2.39,2.169,2.169,0,0,0-.671,1.034V-.592l.955.076V0h-2.613Zm9.469-7.447V-6.34h1.395v.574H-18.97v4.131a1.351,1.351,0,0,0,.226.882.755.755,0,0,0,.6.261q.17,0,.331-.015t.372-.05l.105.521a1.817,1.817,0,0,1-.428.117,3.131,3.131,0,0,1-.5.041A1.314,1.314,0,0,1-19.307-.3a1.988,1.988,0,0,1-.372-1.336V-5.766h-1.09V-6.34h1.09V-7.963Zm2.566,4.7a3.407,3.407,0,0,1,.768-2.3,2.544,2.544,0,0,1,2.033-.9,2.551,2.551,0,0,1,2.039.9,3.407,3.407,0,0,1,.768,2.3v.193a3.413,3.413,0,0,1-.765,2.3,2.539,2.539,0,0,1-2.03.894,2.561,2.561,0,0,1-2.045-.894,3.4,3.4,0,0,1-.768-2.3Zm.7.193a3.02,3.02,0,0,0,.557,1.852,1.824,1.824,0,0,0,1.553.75,1.806,1.806,0,0,0,1.535-.75A3.02,3.02,0,0,0-11.5-3.07v-.193a3.006,3.006,0,0,0-.56-1.84A1.815,1.815,0,0,0-13.6-5.859a1.807,1.807,0,0,0-1.541.756,3.017,3.017,0,0,0-.557,1.84Zm5.895-2.748V-6.34h1.576l.064,1.049a2.221,2.221,0,0,1,.814-.861,2.321,2.321,0,0,1,1.213-.3A2,2,0,0,1-4.925-6.1a1.957,1.957,0,0,1,.7,1.081A2.465,2.465,0,0,1-3.41-6.073a2.144,2.144,0,0,1,1.292-.384,1.914,1.914,0,0,1,1.567.674A3.251,3.251,0,0,1,0-3.7V-.6l.955.082V0H-1.661V-.516L-.706-.6V-3.709a2.568,2.568,0,0,0-.413-1.655,1.433,1.433,0,0,0-1.151-.483,1.564,1.564,0,0,0-1.263.521A2.506,2.506,0,0,0-4.081-4q0,.047,0,.088t0,.105V-.592l.955.076V0H-5.733V-.516l.955-.076V-3.709A2.548,2.548,0,0,0-5.2-5.353a1.428,1.428,0,0,0-1.151-.5,1.751,1.751,0,0,0-1.187.378,2.01,2.01,0,0,0-.612,1.017V-.592l.955.076V0H-9.806V-.516l.955-.076v-5.15ZM6.2,0q-.07-.322-.1-.557a3.823,3.823,0,0,1-.029-.475,2.8,2.8,0,0,1-.937.826A2.651,2.651,0,0,1,3.817.123a2.02,2.02,0,0,1-1.441-.48,1.7,1.7,0,0,1-.51-1.3,1.606,1.606,0,0,1,.756-1.395,3.59,3.59,0,0,1,2.051-.516h1.4v-.838a1.351,1.351,0,0,0-.437-1.066,1.78,1.78,0,0,0-1.222-.387,3.072,3.072,0,0,0-.964.144,2.178,2.178,0,0,0-.729.39l-.059.85h-.58L2.089-5.7a3.644,3.644,0,0,1,1.052-.551,3.975,3.975,0,0,1,1.3-.211,2.547,2.547,0,0,1,1.688.533,1.88,1.88,0,0,1,.639,1.529v3.117q0,.193.009.372a2.884,2.884,0,0,0,.038.349l.633.041V0ZM3.894-.5A2.537,2.537,0,0,0,5.235-.85a2.076,2.076,0,0,0,.838-.908V-3.029H4.661a2.636,2.636,0,0,0-1.526.4,1.178,1.178,0,0,0-.571,1,1.046,1.046,0,0,0,.354.823A1.421,1.421,0,0,0,3.894-.5ZM9.964-6.34l.088,1.055v.076a2.247,2.247,0,0,1,.735-.917,1.857,1.857,0,0,1,1.1-.331,1.621,1.621,0,0,1,.261.021,1.874,1.874,0,0,1,.208.044l-.094.656-.521-.035a1.589,1.589,0,0,0-1.087.372,2.052,2.052,0,0,0-.606,1.022V-.592l.955.076V0H8.4V-.516l.955-.076v-5.15L8.4-5.818V-6.34H9.964Zm5.9,5.871a2,2,0,0,0,1.23-.4,1.3,1.3,0,0,0,.533-1.107h.621l.012.035a1.741,1.741,0,0,1-.7,1.471,2.613,2.613,0,0,1-1.7.592,2.411,2.411,0,0,1-2-.888,3.544,3.544,0,0,1-.709-2.282v-.246a3.537,3.537,0,0,1,.709-2.273,2.4,2.4,0,0,1,1.992-.891,3.22,3.22,0,0,1,1.342.275,2.635,2.635,0,0,1,.99.75l.029,1.383h-.6l-.111-1.125a2,2,0,0,0-.7-.5,2.339,2.339,0,0,0-.952-.185,1.69,1.69,0,0,0-1.509.729,3.229,3.229,0,0,0-.489,1.837v.246A3.263,3.263,0,0,0,14.347-1.2,1.7,1.7,0,0,0,15.864-.469Zm6.5.592a2.546,2.546,0,0,1-1.98-.876A3.214,3.214,0,0,1,19.6-2.982V-3.3a3.307,3.307,0,0,1,.782-2.256,2.422,2.422,0,0,1,1.89-.9,2.348,2.348,0,0,1,1.834.738,2.823,2.823,0,0,1,.668,1.969v.6H20.294v.17a2.8,2.8,0,0,0,.571,1.79,1.816,1.816,0,0,0,1.5.724A3.049,3.049,0,0,0,23.476-.65a2.2,2.2,0,0,0,.791-.521l.3.48a2.535,2.535,0,0,1-.9.595A3.473,3.473,0,0,1,22.362.123Zm-.094-5.982a1.679,1.679,0,0,0-1.3.595,2.548,2.548,0,0,0-.618,1.491l.012.029h3.715V-3.92A2.026,2.026,0,0,0,23.587-5.3,1.661,1.661,0,0,0,22.269-5.859Zm3.615-2.76v-.521h1.652V-.592l.955.076V0H25.884V-.516l.955-.076V-8.543Zm3.574,0v-.521H31.11V-.592l.955.076V0H29.458V-.516l.955-.076V-8.543Zm3.6,5.355a3.407,3.407,0,0,1,.768-2.3,2.544,2.544,0,0,1,2.033-.9,2.551,2.551,0,0,1,2.039.9,3.407,3.407,0,0,1,.768,2.3v.193a3.413,3.413,0,0,1-.765,2.3,2.539,2.539,0,0,1-2.03.894,2.561,2.561,0,0,1-2.045-.894,3.4,3.4,0,0,1-.768-2.3Zm.7.193a3.02,3.02,0,0,0,.557,1.852,1.824,1.824,0,0,0,1.553.75,1.806,1.806,0,0,0,1.535-.75A3.02,3.02,0,0,0,37.96-3.07v-.193A3.006,3.006,0,0,0,37.4-5.1a1.815,1.815,0,0,0-1.544-.756,1.807,1.807,0,0,0-1.541.756,3.017,3.017,0,0,0-.557,1.84Z" transform="translate(693 755)" fill="#fff"/><g transform="translate(-133 3)"><g transform="translate(474.779 406.569)"><path d="M296.779,334.431a6.559,6.559,0,0,0-2.073,12.781c.328.061.448-.142.448-.316,0-.156-.006-.673-.009-1.221-1.824.4-2.209-.774-2.209-.774a1.737,1.737,0,0,0-.728-.96c-.6-.407.045-.4.045-.4a1.379,1.379,0,0,1,1.005.676,1.4,1.4,0,0,0,1.908.545,1.4,1.4,0,0,1,.416-.877c-1.457-.166-2.988-.728-2.988-3.241a2.538,2.538,0,0,1,.676-1.76,2.357,2.357,0,0,1,.064-1.736s.551-.176,1.8.672a6.217,6.217,0,0,1,3.284,0c1.252-.849,1.8-.672,1.8-.672a2.354,2.354,0,0,1,.064,1.736,2.533,2.533,0,0,1,.675,1.76c0,2.519-1.534,3.073-2.995,3.236a1.568,1.568,0,0,1,.445,1.214c0,.877-.008,1.584-.008,1.8,0,.175.118.379.45.315a6.559,6.559,0,0,0-2.077-12.78Z" fill="#fff" fill-rule="evenodd"/><path d="M311.651,420.222c-.014.033-.066.042-.112.02s-.074-.066-.059-.1.065-.043.113-.021.075.066.058.1Zm-.081-.06" transform="translate(-18.946 -76.375)" fill="#fff"/><path d="M314.124,422.37c-.031.029-.092.015-.134-.03a.1.1,0,0,1-.019-.136c.032-.029.092-.015.135.03s.051.107.019.136Zm-.063-.067" transform="translate(-21.153 -78.227)" fill="#fff"/><path d="M316.471,425.5c-.04.028-.106,0-.147-.056s-.04-.128,0-.156.105,0,.147.055.04.129,0,.158Zm0,0" transform="translate(-23.242 -80.978)" fill="#fff"/><path d="M319.335,428.924c-.036.04-.113.029-.169-.025a.126.126,0,0,1-.037-.168c.036-.04.113-.028.17.025s.074.128.036.168Zm0,0" transform="translate(-25.752 -84.038)" fill="#fff"/><path d="M323.43,431.476c-.016.051-.09.075-.164.053s-.123-.083-.108-.134.09-.076.164-.053.123.082.107.134Zm0,0" transform="translate(-29.358 -86.378)" fill="#fff"/><path d="M328.311,432.227c0,.054-.061.1-.139.1s-.142-.042-.143-.1.062-.1.14-.1.142.042.142.1Zm0,0" transform="translate(-33.702 -87.09)" fill="#fff"/><path d="M332.928,431.616c.009.053-.045.107-.122.121s-.147-.019-.156-.071.046-.108.122-.122.147.018.157.072Zm0,0" transform="translate(-37.82 -86.564)" fill="#fff"/></g></g></g></svg>