<svg xmlns="http://www.w3.org/2000/svg" width="91.404" height="94.783" viewBox="0 0 91.404 94.783"><g transform="translate(247.43 -540.59)"><path d="M-207.543,628.31c-2.386-.3-4.731-.229-6.348-2.2l1.049-3.208-15.353-6.78-.46,2.2-3.377.188c-.754,1.9-1.01,6.763-.489,9.931a20.714,20.714,0,0,0,5.131-2.726,1.782,1.782,0,0,1,.437-2.033,8.2,8.2,0,0,1,1.863-.846,2.3,2.3,0,0,1,3.118.83c.3.446.545.926.807,1.4.159.284.3.577.476.92l-.509,1.348a1.357,1.357,0,0,0,.154.416c.5.633,1.011,1.264,1.541,1.874a2.79,2.79,0,0,1,.241,3.708,3.207,3.207,0,0,1-3.289,1.455A2.463,2.463,0,0,1-224.1,630.8a5.191,5.191,0,0,1,.668-.641c.054-.772-.2-1.176-.957-1.294-.682-.107-1.343-.345-2.27-.594-.939.573-2.048,1.328-3.226,1.951-1.139.6-2.348,1.069-3.487,1.577-1.734-.53-1.915-2.015-2.007-3.276a32.1,32.1,0,0,1,.474-8.577,12.229,12.229,0,0,0,.1-1.649,8.245,8.245,0,0,1-4.229-2.049,6.625,6.625,0,0,1,.959-4.238l-6.591-3.153c.769-2.177,1.479-4.2,2.2-6.227.473-1.322.991-2.629,1.435-3.96a2.55,2.55,0,0,0,.156-2.191c-.121-.226.009-.63.111-.923a14.863,14.863,0,0,1,.941-2.409,8.025,8.025,0,0,0,1.12-4.983,4.467,4.467,0,0,1,1.05-3.457,13.35,13.35,0,0,0,1.275-2.074,4.1,4.1,0,0,0,.635-1.651,12.773,12.773,0,0,1,1.345-5.49c-.62-1.247-1.219-2.455-1.823-3.662-.17-.339-.375-.661-.528-1.008-1-2.27-.945-2.687.907-4.363a1.907,1.907,0,0,0,.692-1.867,65.232,65.232,0,0,0-2.384-10.038c-.264-.761-.465-1.545-.708-2.362-.685-.254-1.444-.477-2.149-.811-.673-.319-1.291-.755-1.9-1.119-1.543.414-2.51,2.2-4.34,1.522-.47-1.12-.368-1.652.47-2.347a4.175,4.175,0,0,1,2.52-.971c.653-.035.651-.08,1.326-.856a5.077,5.077,0,0,0-3.108-.4,2.106,2.106,0,0,1-2.013-.626v-1.713l1.967-.956a9.049,9.049,0,0,1,4.392,1.843c.5.367.524.341,1.4-.047-.736-.772-1.433-1.485-2.109-2.218a3,3,0,0,1-.756-.993,1.315,1.315,0,0,1,.335-1.5,1.3,1.3,0,0,1,1.5-.272,3.658,3.658,0,0,1,1.454,1.2c.734,1.309,1.3,2.713,2.1,4.431l1.919.65c.056-.789.073-1.313.135-1.832a2.974,2.974,0,0,1,2.216-2.527,1.438,1.438,0,0,1,1.605.51,1.4,1.4,0,0,1-.165,1.783c-.278.333-.615.615-.9.943a2.1,2.1,0,0,0-.631,1.931c.286,1.05-.256,1.6-1,2.151-.6.445-1.127.987-1.636,1.442l2.787,12.949,2.841.134.775,1.75a13.8,13.8,0,0,0,4.424-4.99c.177-.371.394-.727.535-1.111a8.31,8.31,0,0,1,2.092-2.945c1.731-1.751,3.837-3.179,4.784-5.655a4.819,4.819,0,0,1,1.872-1.9,1.708,1.708,0,0,1,1.986.185c.469.35.915.731,1.382,1.084a6.768,6.768,0,0,0,3.026,1.228c1.829.329,3.784.591,5.105,2.277a10.363,10.363,0,0,0,2,1.566,22.8,22.8,0,0,0,2.645-.019,3.828,3.828,0,0,1,3.413,1.415,7.362,7.362,0,0,0,4.806,2.231c1.549.211,3.081.553,4.611.885a2.47,2.47,0,0,1,.98.534,11.936,11.936,0,0,0,7.437,2.845,6.13,6.13,0,0,1,2.76,1.175,17.553,17.553,0,0,1,2.155,1.877,7.69,7.69,0,0,0,3.574,1.432c.561.133,1.115.3,1.806.486a16.551,16.551,0,0,1-.045,3.478,5.58,5.58,0,0,0,1,4.447,8.732,8.732,0,0,1,1.644,5.8,4.255,4.255,0,0,0,1.167,3.268c1.241,1.5.866,2.754-.985,3.176-.472.108-.976.075-1.447.181a8.575,8.575,0,0,0-4.325,2.436,5.209,5.209,0,0,1-2.318,1.409,6.359,6.359,0,0,0-4.1,2.934,4.211,4.211,0,0,1-2.626,2.067,4.166,4.166,0,0,0-3.169,3.311c-.064.253-.169.5-.232.678a17.958,17.958,0,0,1,2.772.86c.957.469.451,1.735,1.158,2.538l11.989.832c.33-.234.624-.475.949-.664a1.663,1.663,0,0,1,1.692-.109,18.55,18.55,0,0,0,1.954.711c1.41-.754,1.372-2.477,2.521-3.483h1.13a2.707,2.707,0,0,1,.436,3.413c-.67,1.224-1.976,1.419-3.041,1.958-.7,1.784-.426,2.339,1.283,3.119a8.781,8.781,0,0,1,3.587,2.409,2.972,2.972,0,0,1,.7,2.692c-1.331,1.128-2.13,1.1-3.3-.135-.808-.852-1.6-1.717-2.423-2.556a5.469,5.469,0,0,0-.944-.554,5.149,5.149,0,0,0,.351,1.083c.941,1.386.778,2.984.827,4.513s-.767,2.247-2.25,2.29c-1.22-.978-1.261-2.245-.982-3.665a21.789,21.789,0,0,0,.211-2.792c-.862-.464-1.342-.1-1.364.476a7.47,7.47,0,0,1-2.074,4.574c-1.044-.178-2.126-.4-2.254-1.838l2.163-4.164a9.813,9.813,0,0,1-1.456-2.089,7.311,7.311,0,0,1-.049-2.273c-3.332-.63-6.668-1.4-10.172-1.132-.212.429-.386.818-.593,1.189a3.519,3.519,0,0,1-4.38,1.847c-1.659-.441-3.3-.948-4.839-1.393-.935,1.08-1.83,2.068-2.666,3.1a4.706,4.706,0,0,0-.646,1.275c-1.028,2.666-2.031,5.341-3.058,8.007-.192.5-.459.968-.69,1.451l-5.072.561c-.711.978.635,2-.282,3.164l-1.745.841c.241,1.539,1.74,3.215,4.315,4.772,2.225-1.442,3.763-3.574,5.4-5.515l-.6-2.012,1.9-2.4c2.776-.216,4.237.656,4.524,2.76a8.077,8.077,0,0,0,1.06.623c3.235,1.326,3.4,3.844,1.784,6.012-1.292.248-2.627.756-4.05.3-.789-1.253.33-2.172.482-3.308l-.537-.618h-2.6c-.546.727-1.23,1.56-1.827,2.453a13.289,13.289,0,0,1-4.139,3.812,1.929,1.929,0,0,1-2.521-.119c-2.214-1.807-4.742-3.279-6.241-5.855A3.588,3.588,0,0,0-207.543,628.31Z" fill="#fff"/></g></svg>