<svg xmlns="http://www.w3.org/2000/svg" width="469.92" height="286.32" viewBox="0 0 469.92 286.32"><g transform="translate(-796 -244.144)"><path d="M-215.16-7.52a7.75,7.75,0,0,1-1,3.86A7.271,7.271,0,0,1-219.2-.8a10.58,10.58,0,0,1-5,1.08,12.507,12.507,0,0,1-5.16-1.02A8.979,8.979,0,0,1-233-3.6a8.119,8.119,0,0,1-1.56-4.24h4.88a5.006,5.006,0,0,0,1.58,3.16,5.13,5.13,0,0,0,3.7,1.32,4.4,4.4,0,0,0,3.22-1.12,3.862,3.862,0,0,0,1.14-2.88,3.706,3.706,0,0,0-.84-2.5,5.89,5.89,0,0,0-2.08-1.54q-1.24-.56-3.4-1.28a29.633,29.633,0,0,1-4.3-1.68,7.82,7.82,0,0,1-2.82-2.44,6.993,6.993,0,0,1-1.16-4.2,7.165,7.165,0,0,1,1.12-4,7.281,7.281,0,0,1,3.2-2.66,11.549,11.549,0,0,1,4.8-.94,10.505,10.505,0,0,1,6.86,2.08,7.838,7.838,0,0,1,2.9,5.44h-4.92a4.8,4.8,0,0,0-1.5-2.74,4.7,4.7,0,0,0-3.34-1.14,4.613,4.613,0,0,0-3.08.98,3.486,3.486,0,0,0-1.16,2.82,3.544,3.544,0,0,0,.8,2.38,5.561,5.561,0,0,0,2.02,1.48q1.22.54,3.34,1.26a29.344,29.344,0,0,1,4.38,1.7,7.935,7.935,0,0,1,2.88,2.5A7.236,7.236,0,0,1-215.16-7.52Zm17.2-14.8a9.773,9.773,0,0,1,5.14,1.36,9.3,9.3,0,0,1,3.54,3.92,13.26,13.26,0,0,1,1.28,6A13.356,13.356,0,0,1-189.28-5a9.3,9.3,0,0,1-3.54,3.92A9.773,9.773,0,0,1-197.96.28a8.719,8.719,0,0,1-5.12-1.48,7.74,7.74,0,0,1-2.96-3.92v15.6h-4.56V-22.04h4.56v5.12a7.74,7.74,0,0,1,2.96-3.92A8.719,8.719,0,0,1-197.96-22.32Zm-1.4,4a6.623,6.623,0,0,0-3.44.9,6.362,6.362,0,0,0-2.4,2.56,8.034,8.034,0,0,0-.88,3.82,8,8,0,0,0,.88,3.84,6.393,6.393,0,0,0,2.4,2.54,6.623,6.623,0,0,0,3.44.9,6.412,6.412,0,0,0,4.88-1.94,7.445,7.445,0,0,0,1.84-5.34,7.46,7.46,0,0,0-1.84-5.32A6.378,6.378,0,0,0-199.36-18.32Zm28.84-10.28a13.918,13.918,0,0,1,7.1,1.84,13.149,13.149,0,0,1,5,5.14,15.187,15.187,0,0,1,1.82,7.46,15.187,15.187,0,0,1-1.82,7.46,13.292,13.292,0,0,1-5,5.16,13.8,13.8,0,0,1-7.1,1.86,13.878,13.878,0,0,1-7.14-1.86,13.435,13.435,0,0,1-5.02-5.16,15.055,15.055,0,0,1-1.84-7.46,15.055,15.055,0,0,1,1.84-7.46,13.29,13.29,0,0,1,5.02-5.14A14,14,0,0,1-170.52-28.6Zm0,4.24a9.407,9.407,0,0,0-4.84,1.24,8.452,8.452,0,0,0-3.3,3.56,11.759,11.759,0,0,0-1.18,5.4,11.759,11.759,0,0,0,1.18,5.4,8.452,8.452,0,0,0,3.3,3.56,9.407,9.407,0,0,0,4.84,1.24,9.222,9.222,0,0,0,4.78-1.24,8.492,8.492,0,0,0,3.28-3.56,11.759,11.759,0,0,0,1.18-5.4,11.759,11.759,0,0,0-1.18-5.4,8.492,8.492,0,0,0-3.28-3.56A9.222,9.222,0,0,0-170.52-24.36Zm30.84,1.96a8.036,8.036,0,0,1,6.16,2.48q2.32,2.48,2.32,7.08V0h-4.56V-12.36a6.438,6.438,0,0,0-1.52-4.58,5.428,5.428,0,0,0-4.16-1.62,5.709,5.709,0,0,0-4.36,1.74,7.172,7.172,0,0,0-1.64,5.1V0H-152V-22.04h4.56v4.84a7.4,7.4,0,0,1,2.96-3.84A8.572,8.572,0,0,1-139.68-22.4Zm26.72-6.08a13.761,13.761,0,0,1,8.4,2.48,11.661,11.661,0,0,1,4.44,6.76h-4.8a7.666,7.666,0,0,0-3.02-3.64,8.959,8.959,0,0,0-4.98-1.36A9.145,9.145,0,0,0-117.66-23a8.546,8.546,0,0,0-3.28,3.52,11.512,11.512,0,0,0-1.18,5.36,11.967,11.967,0,0,0,1.2,5.56,8.339,8.339,0,0,0,3.38,3.54,10.188,10.188,0,0,0,5.06,1.22,8.923,8.923,0,0,0,6.04-2.18,9.241,9.241,0,0,0,3.04-5.98h-10.36v-3.36h14.2v4.36a13.519,13.519,0,0,1-2.22,5.66,12.685,12.685,0,0,1-4.6,4.06A13.722,13.722,0,0,1-112.92.28a14.2,14.2,0,0,1-7.28-1.84,12.572,12.572,0,0,1-4.88-5.1,15.746,15.746,0,0,1-1.72-7.46,15.746,15.746,0,0,1,1.72-7.46,12.477,12.477,0,0,1,4.86-5.08A14.214,14.214,0,0,1-112.96-28.48Zm38.48,16.4a10.584,10.584,0,0,1-.16,1.96H-91.6a6.931,6.931,0,0,0,1.88,5.04,6.152,6.152,0,0,0,4.36,1.64A6.343,6.343,0,0,0-81.5-4.6a4.789,4.789,0,0,0,1.94-3.08h4.88a9.487,9.487,0,0,1-1.84,4.12A9.51,9.51,0,0,1-80.16-.74a11.928,11.928,0,0,1-5,1.02,11.5,11.5,0,0,1-5.66-1.36A9.673,9.673,0,0,1-94.68-5a12.4,12.4,0,0,1-1.4-6.04,12.314,12.314,0,0,1,1.4-6,9.673,9.673,0,0,1,3.86-3.92,11.5,11.5,0,0,1,5.66-1.36,11.5,11.5,0,0,1,5.66,1.34,9.322,9.322,0,0,1,3.72,3.68A10.565,10.565,0,0,1-74.48-12.08Zm-4.6-.12a6.777,6.777,0,0,0-.74-3.62,5.144,5.144,0,0,0-2.24-2.16,6.915,6.915,0,0,0-3.1-.7,6.4,6.4,0,0,0-4.48,1.64A6.7,6.7,0,0,0-91.6-12.2Zm23.72-2.36a6.989,6.989,0,0,1,4.14,2.44,6.838,6.838,0,0,1,1.58,4.48A7.028,7.028,0,0,1-52-2.06Q-54.36,0-58.84,0H-70.08V-28.24h11.04q4.24,0,6.5,1.9a6.455,6.455,0,0,1,2.26,5.22,6.5,6.5,0,0,1-1.4,4.34A6.785,6.785,0,0,1-55.36-14.56Zm-10.16-1.52h5.64a5.342,5.342,0,0,0,3.66-1.12,3.958,3.958,0,0,0,1.26-3.12,3.909,3.909,0,0,0-1.26-3.08,5.61,5.61,0,0,0-3.82-1.12h-5.48Zm5.76,12.32a6.124,6.124,0,0,0,4.02-1.18,4.054,4.054,0,0,0,1.42-3.3,4.087,4.087,0,0,0-1.44-3.32,6.136,6.136,0,0,0-4.04-1.2h-5.72v9Zm24.48-18.56a12.084,12.084,0,0,1,5.76,1.36,9.762,9.762,0,0,1,4,3.92,12.037,12.037,0,0,1,1.44,6A12.121,12.121,0,0,1-25.52-5a9.762,9.762,0,0,1-4,3.92A12.084,12.084,0,0,1-35.28.28a11.967,11.967,0,0,1-5.74-1.36,9.89,9.89,0,0,1-4-3.94,12.016,12.016,0,0,1-1.46-6.02,11.9,11.9,0,0,1,1.46-6,9.924,9.924,0,0,1,4-3.92A11.967,11.967,0,0,1-35.28-22.32Zm0,3.96a6.7,6.7,0,0,0-3.24.8A5.894,5.894,0,0,0-40.9-15.1a8.421,8.421,0,0,0-.9,4.06,8.4,8.4,0,0,0,.9,4.08,5.92,5.92,0,0,0,2.38,2.44,6.7,6.7,0,0,0,3.24.8,6.7,6.7,0,0,0,3.24-.8,5.92,5.92,0,0,0,2.38-2.44,8.4,8.4,0,0,0,.9-4.08,8.421,8.421,0,0,0-.9-4.06,5.894,5.894,0,0,0-2.38-2.46A6.7,6.7,0,0,0-35.28-18.36Zm30.32,3.8A6.989,6.989,0,0,1-.82-12.12,6.838,6.838,0,0,1,.76-7.64,7.028,7.028,0,0,1-1.6-2.06Q-3.96,0-8.44,0H-19.68V-28.24H-8.64q4.24,0,6.5,1.9A6.455,6.455,0,0,1,.12-21.12a6.5,6.5,0,0,1-1.4,4.34A6.785,6.785,0,0,1-4.96-14.56Zm-10.16-1.52h5.64A5.342,5.342,0,0,0-5.82-17.2a3.958,3.958,0,0,0,1.26-3.12A3.909,3.909,0,0,0-5.82-23.4a5.61,5.61,0,0,0-3.82-1.12h-5.48ZM-9.36-3.76A6.124,6.124,0,0,0-5.34-4.94a4.054,4.054,0,0,0,1.42-3.3,4.087,4.087,0,0,0-1.44-3.32,6.136,6.136,0,0,0-4.04-1.2h-5.72v9ZM31.08-28.24v3.68H18.96v8.76h10v3.52h-10V0H14.4V-28.24Zm14.16,5.92A12.084,12.084,0,0,1,51-20.96a9.762,9.762,0,0,1,4,3.92,12.037,12.037,0,0,1,1.44,6A12.121,12.121,0,0,1,55-5a9.762,9.762,0,0,1-4,3.92A12.084,12.084,0,0,1,45.24.28,11.967,11.967,0,0,1,39.5-1.08a9.89,9.89,0,0,1-4-3.94,12.016,12.016,0,0,1-1.46-6.02,11.9,11.9,0,0,1,1.46-6,9.924,9.924,0,0,1,4-3.92A11.967,11.967,0,0,1,45.24-22.32Zm0,3.96a6.7,6.7,0,0,0-3.24.8,5.894,5.894,0,0,0-2.38,2.46,8.421,8.421,0,0,0-.9,4.06,8.4,8.4,0,0,0,.9,4.08A5.92,5.92,0,0,0,42-4.52a6.7,6.7,0,0,0,3.24.8,6.7,6.7,0,0,0,3.24-.8,5.92,5.92,0,0,0,2.38-2.44,8.4,8.4,0,0,0,.9-4.08,8.421,8.421,0,0,0-.9-4.06,5.894,5.894,0,0,0-2.38-2.46A6.7,6.7,0,0,0,45.24-18.36ZM75.68,0,68.64-11.28H65.4V0H60.84V-28.24H70.8q4.84,0,7.34,2.36a8.18,8.18,0,0,1,2.5,6.24,7.946,7.946,0,0,1-1.86,5.44,8.858,8.858,0,0,1-5.38,2.72L80.8,0ZM65.4-14.52h5.04q5.52,0,5.52-4.88a4.809,4.809,0,0,0-1.34-3.62,5.816,5.816,0,0,0-4.18-1.3H65.4Zm46.92-7.88a8.2,8.2,0,0,1,6.26,2.48q2.34,2.48,2.34,7.08V0h-4.56V-12.36a6.385,6.385,0,0,0-1.44-4.46,5.089,5.089,0,0,0-3.96-1.58,5.534,5.534,0,0,0-4.26,1.7,7.066,7.066,0,0,0-1.58,4.98V0h-4.56V-12.36a6.385,6.385,0,0,0-1.44-4.46,5.089,5.089,0,0,0-3.96-1.58,5.534,5.534,0,0,0-4.26,1.7,7.066,7.066,0,0,0-1.58,4.98V0H84.76V-22.04h4.56v4.6a7,7,0,0,1,2.8-3.68,8.222,8.222,0,0,1,4.6-1.28,8.355,8.355,0,0,1,4.78,1.36,7.7,7.7,0,0,1,2.94,3.92A7.962,7.962,0,0,1,107.52-21,8.515,8.515,0,0,1,112.32-22.4ZM143.08-6.12H131.16L129,0h-4.88l10.4-27.8h5.24L150.12,0h-4.88ZM141.8-9.64l-4.68-13.2-4.68,13.2Zm22.8,5.68V0h-2.8a7.554,7.554,0,0,1-5.34-1.7q-1.82-1.7-1.82-5.66v-10.8h-3.16v-3.88h3.16v-5.48h4.6v5.48h5.32v3.88h-5.32V-7.28a3.726,3.726,0,0,0,.7,2.6,3.368,3.368,0,0,0,2.46.72Zm22.44-24.28v3.68h-7.88V0h-4.6V-24.56h-7.84v-3.68Zm23.88,16.16a10.583,10.583,0,0,1-.16,1.96H193.8a6.931,6.931,0,0,0,1.88,5.04,6.152,6.152,0,0,0,4.36,1.64A6.343,6.343,0,0,0,203.9-4.6a4.789,4.789,0,0,0,1.94-3.08h4.88a9.487,9.487,0,0,1-1.84,4.12,9.51,9.51,0,0,1-3.64,2.82,11.928,11.928,0,0,1-5,1.02,11.5,11.5,0,0,1-5.66-1.36A9.673,9.673,0,0,1,190.72-5a12.4,12.4,0,0,1-1.4-6.04,12.314,12.314,0,0,1,1.4-6,9.673,9.673,0,0,1,3.86-3.92,11.5,11.5,0,0,1,5.66-1.36,11.5,11.5,0,0,1,5.66,1.34,9.322,9.322,0,0,1,3.72,3.68A10.565,10.565,0,0,1,210.92-12.08Zm-4.6-.12a6.777,6.777,0,0,0-.74-3.62,5.144,5.144,0,0,0-2.24-2.16,6.915,6.915,0,0,0-3.1-.7,6.4,6.4,0,0,0-4.48,1.64,6.7,6.7,0,0,0-1.96,4.84ZM230.16,0l-7.04-11.28h-3.24V0h-4.56V-28.24h9.96q4.84,0,7.34,2.36a8.18,8.18,0,0,1,2.5,6.24,7.946,7.946,0,0,1-1.86,5.44,8.858,8.858,0,0,1-5.38,2.72L235.28,0ZM219.88-14.52h5.04q5.52,0,5.52-4.88a4.809,4.809,0,0,0-1.34-3.62,5.816,5.816,0,0,0-4.18-1.3h-5.04Z" transform="translate(1030.64 498)" fill="#fff"/><g transform="translate(952.611 244.144)"><path d="M-173.429,703.334c-4.426-.565-8.778-.425-11.776-4.079.669-2.045,1.281-3.916,1.946-5.952l-28.483-12.578-.853,4.088-6.264.349c-1.4,3.533-1.873,12.547-.908,18.425,3.529-.988,6.366-3.122,9.52-5.058-.4-1.4-.371-2.878.81-3.772a15.206,15.206,0,0,1,3.456-1.569c2.31-.951,4.321-.659,5.784,1.54.551.828,1.012,1.718,1.5,2.588.294.527.557,1.071.883,1.706l-.944,2.5a2.518,2.518,0,0,0,.286.772c.932,1.175,1.875,2.345,2.859,3.478,1.889,2.174,2.039,4.253.447,6.879a5.949,5.949,0,0,1-6.1,2.7,4.57,4.57,0,0,1-2.87-7.406,9.631,9.631,0,0,1,1.239-1.19c.1-1.433-.37-2.182-1.775-2.4-1.265-.2-2.492-.64-4.211-1.1-1.741,1.064-3.8,2.464-5.986,3.62-2.112,1.116-4.357,1.982-6.469,2.925-3.217-.984-3.554-3.739-3.723-6.078a59.553,59.553,0,0,1,.879-15.913,22.7,22.7,0,0,0,.186-3.059c-3.042-.692-5.739-1.683-7.847-3.8a12.291,12.291,0,0,1,1.78-7.864l-12.227-5.849c1.427-4.039,2.744-7.8,4.086-11.553.877-2.453,1.838-4.877,2.662-7.347.432-1.3,1.077-2.6.289-4.065-.225-.419.017-1.169.206-1.712a27.583,27.583,0,0,1,1.746-4.469,14.889,14.889,0,0,0,2.077-9.244,8.287,8.287,0,0,1,1.948-6.414,24.763,24.763,0,0,0,2.365-3.849,7.613,7.613,0,0,0,1.177-3.063,23.7,23.7,0,0,1,2.495-10.186c-1.15-2.313-2.262-4.555-3.382-6.793-.315-.629-.7-1.227-.979-1.869-1.861-4.211-1.754-4.985,1.682-8.1a3.537,3.537,0,0,0,1.283-3.463,121.024,121.024,0,0,0-4.423-18.623c-.49-1.412-.862-2.866-1.313-4.383-1.272-.471-2.68-.884-3.988-1.505-1.249-.592-2.395-1.4-3.52-2.076-2.864.768-4.657,4.09-8.052,2.824-.873-2.077-.683-3.064.873-4.355a7.745,7.745,0,0,1,4.675-1.8c1.212-.065,1.207-.149,2.459-1.589a9.42,9.42,0,0,0-5.766-.736,3.907,3.907,0,0,1-3.734-1.162v-3.178l3.649-1.774a16.789,16.789,0,0,1,8.149,3.419c.934.682.972.632,2.6-.087-1.366-1.432-2.658-2.756-3.912-4.115a5.563,5.563,0,0,1-1.4-1.842,2.439,2.439,0,0,1,.622-2.775,2.4,2.4,0,0,1,2.792-.5,6.787,6.787,0,0,1,2.7,2.221c1.361,2.429,2.412,5.033,3.89,8.221l3.56,1.205c.1-1.463.136-2.436.25-3.4a5.517,5.517,0,0,1,4.111-4.688,2.668,2.668,0,0,1,2.978.947,2.593,2.593,0,0,1-.305,3.307c-.515.617-1.141,1.142-1.671,1.749a3.894,3.894,0,0,0-1.171,3.583c.531,1.948-.475,2.968-1.853,3.991-1.113.825-2.091,1.832-3.035,2.674,1.74,8.085,3.423,15.9,5.171,24.025l5.27.249,1.437,3.246c3.462-2.614,6.388-5.447,8.207-9.258.328-.689.73-1.349.992-2.06a15.417,15.417,0,0,1,3.882-5.464c3.211-3.249,7.118-5.9,8.876-10.491.547-1.426,2.117-2.608,3.472-3.529a3.169,3.169,0,0,1,3.685.344c.87.649,1.7,1.357,2.563,2.01a12.556,12.556,0,0,0,5.614,2.278c3.393.61,7.021,1.1,9.472,4.225.941,1.2,2.458,1.954,3.7,2.905a42.311,42.311,0,0,0,4.906-.035,7.1,7.1,0,0,1,6.333,2.626c2.427,2.691,5.484,3.671,8.916,4.138,2.874.391,5.717,1.027,8.555,1.642a4.583,4.583,0,0,1,1.818.99,22.145,22.145,0,0,0,13.8,5.277c1.739.056,3.555,1.2,5.121,2.18a32.558,32.558,0,0,1,4,3.482c1.891,1.68,4.286,2.1,6.63,2.657,1.041.246,2.068.554,3.351.9,0,2.3.365,4.467-.084,6.453-.715,3.165.248,5.711,1.861,8.25,2.079,3.276,3.522,6.745,3.05,10.766a7.9,7.9,0,0,0,2.165,6.064c2.3,2.785,1.606,5.11-1.827,5.892-.875.2-1.81.138-2.685.337a15.911,15.911,0,0,0-8.023,4.519,9.665,9.665,0,0,1-4.3,2.614c-3.1.936-5.937,2.362-7.608,5.443a7.813,7.813,0,0,1-4.872,3.835,7.73,7.73,0,0,0-5.88,6.143c-.118.47-.314.921-.43,1.257a33.317,33.317,0,0,1,5.142,1.595c1.775.871.837,3.219,2.148,4.709l22.243,1.544c.613-.434,1.159-.881,1.76-1.232a3.085,3.085,0,0,1,3.139-.2,34.418,34.418,0,0,0,3.625,1.319c2.616-1.4,2.546-4.595,4.678-6.462h2.1c1.737,1.281,2.018,4.124.808,6.332-1.244,2.27-3.667,2.633-5.642,3.634-1.3,3.31-.79,4.34,2.38,5.787,2.439,1.113,4.88,2.2,6.654,4.47a5.513,5.513,0,0,1,1.3,4.995c-2.469,2.094-3.952,2.035-6.12-.25-1.5-1.581-2.972-3.186-4.495-4.742a10.153,10.153,0,0,0-1.752-1.029,9.557,9.557,0,0,0,.65,2.008c1.747,2.57,1.444,5.537,1.535,8.372.088,2.815-1.422,4.17-4.174,4.249-2.264-1.815-2.34-4.164-1.821-6.8a40.42,40.42,0,0,0,.392-5.18c-1.6-.86-2.491-.187-2.53.882-.121,3.308-1.692,5.9-3.849,8.487-1.937-.329-3.944-.741-4.181-3.409l4.014-7.725c-1.035-1.424-2.215-2.525-2.7-3.876-.431-1.2-.09-2.676-.09-4.217-6.181-1.169-12.372-2.6-18.872-2.1-.394.8-.717,1.517-1.1,2.206-1.778,3.211-4.489,4.392-8.126,3.427-3.079-.818-6.126-1.759-8.978-2.584-1.735,2-3.4,3.836-4.946,5.758a8.73,8.73,0,0,0-1.2,2.366c-1.907,4.946-3.768,9.909-5.673,14.855-.356.925-.851,1.8-1.28,2.691l-9.41,1.041c-1.32,1.814,1.177,3.7-.524,5.871l-3.237,1.561c.448,2.855,3.228,5.964,8,8.854,4.128-2.674,6.981-6.63,10.021-10.232l-1.114-3.733,3.516-4.451c5.151-.4,7.861,1.217,8.393,5.12a14.985,14.985,0,0,0,1.967,1.156c6,2.459,6.311,7.132,3.31,11.153-2.4.46-4.873,1.4-7.513.552-1.464-2.325.612-4.03.895-6.136l-1-1.147h-4.815c-1.012,1.349-2.283,2.895-3.39,4.551a24.654,24.654,0,0,1-7.678,7.072,3.579,3.579,0,0,1-4.677-.221c-4.108-3.353-8.8-6.082-11.578-10.862A6.656,6.656,0,0,0-173.429,703.334Z" transform="translate(247.43 -540.59)" fill="#fff"/></g><path d="M7.84-2.448H3.072L2.208,0H.256l4.16-11.12h2.1L10.656,0H8.7ZM7.328-3.856,5.456-9.136,3.584-3.856Zm10.256-.528V0H15.76V-11.3H19.6a4.135,4.135,0,0,1,2.936.928,3.328,3.328,0,0,1,.984,2.544A3.241,3.241,0,0,1,22.512-5.3a4.174,4.174,0,0,1-2.912.92Zm1.824-1.488q2.256,0,2.256-1.952a1.913,1.913,0,0,0-.536-1.464,2.455,2.455,0,0,0-1.72-.5H17.584v3.92Zm7.536-1.216a3.4,3.4,0,0,1,1.28-1.368,3.632,3.632,0,0,1,1.92-.5v1.984H29.6a2.99,2.99,0,0,0-1.928.584,2.331,2.331,0,0,0-.728,1.928V0H25.12V-8.816h1.824Zm8.592-1.84a4.834,4.834,0,0,1,2.3.544,3.9,3.9,0,0,1,1.6,1.568,4.815,4.815,0,0,1,.576,2.4A4.849,4.849,0,0,1,39.44-2a3.9,3.9,0,0,1-1.6,1.568,4.834,4.834,0,0,1-2.3.544,4.787,4.787,0,0,1-2.3-.544,3.956,3.956,0,0,1-1.6-1.576,4.807,4.807,0,0,1-.584-2.408,4.762,4.762,0,0,1,.584-2.4,3.97,3.97,0,0,1,1.6-1.568A4.787,4.787,0,0,1,35.536-8.928Zm0,1.584a2.682,2.682,0,0,0-1.3.32,2.358,2.358,0,0,0-.952.984,3.368,3.368,0,0,0-.36,1.624,3.358,3.358,0,0,0,.36,1.632,2.368,2.368,0,0,0,.952.976,2.682,2.682,0,0,0,1.3.32,2.682,2.682,0,0,0,1.3-.32,2.368,2.368,0,0,0,.952-.976,3.358,3.358,0,0,0,.36-1.632,3.368,3.368,0,0,0-.36-1.624,2.358,2.358,0,0,0-.952-.984A2.682,2.682,0,0,0,35.536-7.344Zm9.776-1.584a3.488,3.488,0,0,1,2.048.592,3.186,3.186,0,0,1,1.2,1.568V-8.816h1.824V.1a4.6,4.6,0,0,1-.5,2.184,3.688,3.688,0,0,1-1.448,1.5,4.411,4.411,0,0,1-2.24.544,4.787,4.787,0,0,1-3-.88A3.8,3.8,0,0,1,41.76,1.056h1.808a2.152,2.152,0,0,0,.864,1.224,2.819,2.819,0,0,0,1.632.44,2.49,2.49,0,0,0,1.792-.672A2.573,2.573,0,0,0,48.56.1V-2.048A3.186,3.186,0,0,1,47.36-.48a3.488,3.488,0,0,1-2.048.592,3.909,3.909,0,0,1-2.056-.544A3.718,3.718,0,0,1,41.84-2a5.342,5.342,0,0,1-.512-2.416,5.3,5.3,0,0,1,.512-2.4,3.718,3.718,0,0,1,1.416-1.568A3.909,3.909,0,0,1,45.312-8.928Zm.56,1.6a2.539,2.539,0,0,0-1.944.776A3,3,0,0,0,43.2-4.416a3,3,0,0,0,.728,2.136,2.539,2.539,0,0,0,1.944.776,2.649,2.649,0,0,0,1.376-.36,2.557,2.557,0,0,0,.96-1.016,3.2,3.2,0,0,0,.352-1.536,3.213,3.213,0,0,0-.352-1.528,2.545,2.545,0,0,0-.96-1.024A2.649,2.649,0,0,0,45.872-7.328Zm8.528.24a3.4,3.4,0,0,1,1.28-1.368,3.632,3.632,0,0,1,1.92-.5v1.984h-.544a2.99,2.99,0,0,0-1.928.584A2.331,2.331,0,0,0,54.4-4.464V0H52.576V-8.816H54.4ZM67.152-4.832a4.234,4.234,0,0,1-.064.784H60.3a2.772,2.772,0,0,0,.752,2.016,2.461,2.461,0,0,0,1.744.656,2.537,2.537,0,0,0,1.544-.464,1.916,1.916,0,0,0,.776-1.232h1.952a3.8,3.8,0,0,1-.736,1.648A3.8,3.8,0,0,1,64.88-.3a4.771,4.771,0,0,1-2,.408,4.6,4.6,0,0,1-2.264-.544A3.869,3.869,0,0,1,59.072-2a4.96,4.96,0,0,1-.56-2.416,4.925,4.925,0,0,1,.56-2.4,3.869,3.869,0,0,1,1.544-1.568,4.6,4.6,0,0,1,2.264-.544,4.6,4.6,0,0,1,2.264.536A3.729,3.729,0,0,1,66.632-6.92,4.226,4.226,0,0,1,67.152-4.832Zm-1.84-.048a2.711,2.711,0,0,0-.3-1.448,2.058,2.058,0,0,0-.9-.864,2.766,2.766,0,0,0-1.24-.28,2.561,2.561,0,0,0-1.792.656A2.68,2.68,0,0,0,60.3-4.88Zm6.5-4.048a3.723,3.723,0,0,1,2.488.792,3.351,3.351,0,0,1,1.144,2.12H73.712a1.865,1.865,0,0,0-.616-1.16,1.959,1.959,0,0,0-1.336-.44,1.568,1.568,0,0,0-1.064.328,1.118,1.118,0,0,0-.376.888.88.88,0,0,0,.272.672,1.9,1.9,0,0,0,.68.4,11.71,11.71,0,0,0,1.16.32,11.59,11.59,0,0,1,1.608.464,2.605,2.605,0,0,1,1.056.76,2.122,2.122,0,0,1,.44,1.416A2.207,2.207,0,0,1,74.7-.576a3.466,3.466,0,0,1-2.264.688,4.3,4.3,0,0,1-2.664-.768A3.161,3.161,0,0,1,68.544-2.8H70.32a1.677,1.677,0,0,0,.64,1.168,2.286,2.286,0,0,0,1.472.448,1.471,1.471,0,0,0,1.032-.344A1.131,1.131,0,0,0,73.84-2.4a.964.964,0,0,0-.288-.736,2,2,0,0,0-.72-.424,10,10,0,0,0-1.184-.312,13.117,13.117,0,0,1-1.56-.448,2.432,2.432,0,0,1-1.024-.728,2.058,2.058,0,0,1-.424-1.368,2.246,2.246,0,0,1,.84-1.816A3.545,3.545,0,0,1,71.808-8.928Zm8.448,0a3.723,3.723,0,0,1,2.488.792,3.351,3.351,0,0,1,1.144,2.12H82.16a1.865,1.865,0,0,0-.616-1.16,1.959,1.959,0,0,0-1.336-.44,1.568,1.568,0,0,0-1.064.328,1.118,1.118,0,0,0-.376.888.88.88,0,0,0,.272.672,1.9,1.9,0,0,0,.68.4,11.71,11.71,0,0,0,1.16.32,11.59,11.59,0,0,1,1.608.464,2.605,2.605,0,0,1,1.056.76,2.122,2.122,0,0,1,.44,1.416,2.207,2.207,0,0,1-.84,1.792A3.466,3.466,0,0,1,80.88.112a4.3,4.3,0,0,1-2.664-.768A3.161,3.161,0,0,1,76.992-2.8h1.776a1.677,1.677,0,0,0,.64,1.168,2.286,2.286,0,0,0,1.472.448,1.471,1.471,0,0,0,1.032-.344,1.131,1.131,0,0,0,.376-.872A.964.964,0,0,0,82-3.136a2,2,0,0,0-.72-.424A10,10,0,0,0,80.1-3.872a13.117,13.117,0,0,1-1.56-.448,2.432,2.432,0,0,1-1.024-.728,2.058,2.058,0,0,1-.424-1.368,2.246,2.246,0,0,1,.84-1.816A3.545,3.545,0,0,1,80.256-8.928Zm5.3-2.448a1.014,1.014,0,0,1,.32-.768,1.18,1.18,0,0,1,.848-.3,1.209,1.209,0,0,1,.856.3,1,1,0,0,1,.328.768.953.953,0,0,1-.328.752,1.25,1.25,0,0,1-.856.288,1.22,1.22,0,0,1-.848-.288A.964.964,0,0,1,85.552-11.376Zm2.08,2.56V0H85.808V-8.816Zm5.824,6.928,2.5-6.928H97.9L94.544,0H92.336l-3.36-8.816h1.952ZM107.44-4.832a4.234,4.234,0,0,1-.064.784h-6.784a2.772,2.772,0,0,0,.752,2.016,2.461,2.461,0,0,0,1.744.656,2.537,2.537,0,0,0,1.544-.464,1.916,1.916,0,0,0,.776-1.232h1.952a3.8,3.8,0,0,1-.736,1.648A3.8,3.8,0,0,1,105.168-.3a4.771,4.771,0,0,1-2,.408A4.6,4.6,0,0,1,100.9-.432,3.869,3.869,0,0,1,99.36-2a4.96,4.96,0,0,1-.56-2.416,4.925,4.925,0,0,1,.56-2.4A3.869,3.869,0,0,1,100.9-8.384a4.6,4.6,0,0,1,2.264-.544,4.6,4.6,0,0,1,2.264.536A3.729,3.729,0,0,1,106.92-6.92,4.226,4.226,0,0,1,107.44-4.832ZM105.6-4.88a2.711,2.711,0,0,0-.3-1.448,2.058,2.058,0,0,0-.9-.864,2.766,2.766,0,0,0-1.24-.28,2.561,2.561,0,0,0-1.792.656,2.68,2.68,0,0,0-.784,1.936ZM127.248-11.3,124.432,0h-2.24l-2.384-8.736L117.424,0h-2.24l-2.816-11.3h2l1.952,9.184L118.8-11.3h2.016l2.48,9.184,1.952-9.184Zm9.824,6.464a4.232,4.232,0,0,1-.064.784h-6.784a2.772,2.772,0,0,0,.752,2.016,2.461,2.461,0,0,0,1.744.656,2.537,2.537,0,0,0,1.544-.464,1.916,1.916,0,0,0,.776-1.232h1.952a3.8,3.8,0,0,1-.736,1.648A3.8,3.8,0,0,1,134.8-.3a4.771,4.771,0,0,1-2,.408,4.6,4.6,0,0,1-2.264-.544A3.869,3.869,0,0,1,128.992-2a4.96,4.96,0,0,1-.56-2.416,4.925,4.925,0,0,1,.56-2.4,3.869,3.869,0,0,1,1.544-1.568,4.6,4.6,0,0,1,2.264-.544,4.6,4.6,0,0,1,2.264.536,3.729,3.729,0,0,1,1.488,1.472A4.226,4.226,0,0,1,137.072-4.832Zm-1.84-.048a2.711,2.711,0,0,0-.3-1.448,2.058,2.058,0,0,0-.9-.864,2.766,2.766,0,0,0-1.24-.28,2.561,2.561,0,0,0-1.792.656,2.68,2.68,0,0,0-.784,1.936Zm8.656-4.048a3.909,3.909,0,0,1,2.056.544,3.718,3.718,0,0,1,1.416,1.568,5.3,5.3,0,0,1,.512,2.4A5.342,5.342,0,0,1,147.36-2a3.718,3.718,0,0,1-1.416,1.568,3.909,3.909,0,0,1-2.056.544A3.488,3.488,0,0,1,141.84-.48a3.1,3.1,0,0,1-1.184-1.568V0h-1.824V-11.84h1.824v5.072a3.1,3.1,0,0,1,1.184-1.568A3.488,3.488,0,0,1,143.888-8.928Zm-.56,1.6a2.649,2.649,0,0,0-1.376.36,2.545,2.545,0,0,0-.96,1.024,3.213,3.213,0,0,0-.352,1.528,3.2,3.2,0,0,0,.352,1.536,2.557,2.557,0,0,0,.96,1.016,2.649,2.649,0,0,0,1.376.36,2.565,2.565,0,0,0,1.952-.776,2.978,2.978,0,0,0,.736-2.136,2.984,2.984,0,0,0-.736-2.128A2.551,2.551,0,0,0,143.328-7.328Zm16.784,4.88h-4.768L154.48,0h-1.952l4.16-11.12h2.1L162.928,0h-1.952ZM159.6-3.856l-1.872-5.28-1.872,5.28Zm9.744-5.072a3.909,3.909,0,0,1,2.056.544,3.718,3.718,0,0,1,1.416,1.568,5.3,5.3,0,0,1,.512,2.4A5.342,5.342,0,0,1,172.816-2,3.718,3.718,0,0,1,171.4-.432a3.909,3.909,0,0,1-2.056.544A3.488,3.488,0,0,1,167.3-.48a3.1,3.1,0,0,1-1.184-1.568v6.24h-1.824V-8.816h1.824v2.048A3.1,3.1,0,0,1,167.3-8.336,3.488,3.488,0,0,1,169.344-8.928Zm-.56,1.6a2.649,2.649,0,0,0-1.376.36,2.545,2.545,0,0,0-.96,1.024,3.213,3.213,0,0,0-.352,1.528,3.2,3.2,0,0,0,.352,1.536,2.557,2.557,0,0,0,.96,1.016,2.649,2.649,0,0,0,1.376.36,2.565,2.565,0,0,0,1.952-.776,2.978,2.978,0,0,0,.736-2.136,2.984,2.984,0,0,0-.736-2.128A2.551,2.551,0,0,0,168.784-7.328Zm11.36-1.6a3.909,3.909,0,0,1,2.056.544,3.718,3.718,0,0,1,1.416,1.568,5.3,5.3,0,0,1,.512,2.4A5.342,5.342,0,0,1,183.616-2,3.718,3.718,0,0,1,182.2-.432a3.909,3.909,0,0,1-2.056.544A3.488,3.488,0,0,1,178.1-.48a3.1,3.1,0,0,1-1.184-1.568v6.24h-1.824V-8.816h1.824v2.048A3.1,3.1,0,0,1,178.1-8.336,3.488,3.488,0,0,1,180.144-8.928Zm-.56,1.6a2.649,2.649,0,0,0-1.376.36,2.545,2.545,0,0,0-.96,1.024,3.213,3.213,0,0,0-.352,1.528,3.2,3.2,0,0,0,.352,1.536,2.557,2.557,0,0,0,.96,1.016,2.649,2.649,0,0,0,1.376.36,2.565,2.565,0,0,0,1.952-.776,2.978,2.978,0,0,0,.736-2.136,2.984,2.984,0,0,0-.736-2.128A2.551,2.551,0,0,0,179.584-7.328Z" transform="translate(939 526.144)" fill="#fff"/></g></svg>